<?xml version="1.0" standalone="no"?><!DOCTYPE svg PUBLIC "-//W3C//DTD SVG 1.1//EN" "http://www.w3.org/Graphics/SVG/1.1/DTD/svg11.dtd"><svg t="1754279036377" class="icon" viewBox="0 0 1024 1024" version="1.1" xmlns="http://www.w3.org/2000/svg" p-id="11344" xmlns:xlink="http://www.w3.org/1999/xlink" width="32" height="32"><path d="M828.224 64l0.064 453.888a237.184 237.184 0 0 0-229.504 389.504l-508.416-0.128V64h737.92z m-142.272 316.224H232.64v94.912h453.312V380.16z m0-184.448H232.64V290.56h453.312V195.84z" fill="#1890FF" p-id="11345"></path><path d="M775.552 564.736a184.448 184.448 0 1 1 0 368.896 184.448 184.448 0 0 1 0-368.896z m3.2 252.928h-3.2a23.936 23.936 0 0 0-18.496 7.936c-5.248 2.624-7.872 7.936-7.872 15.808 0 5.248 2.624 10.56 5.248 15.808a28.48 28.48 0 0 0 18.432 7.936 23.936 23.936 0 0 0 18.496-7.936 23.936 23.936 0 0 0 7.872-18.432c0-5.248-2.56-10.56-7.872-15.808-5.312-5.312-10.56-5.312-15.808-5.312h3.2z m2.048-184.448c-23.68 0-42.176 7.936-55.36 21.12-13.184 13.12-21.12 31.616-21.12 55.296h34.304c0-13.184 2.624-23.68 7.936-31.616 5.248-7.872 15.808-13.184 28.992-13.184 13.184 0 21.12 2.624 26.304 7.936 5.312 5.248 7.936 13.184 7.936 23.68a36.8 36.8 0 0 1-7.936 23.68l-5.248 5.312c-21.12 18.496-31.616 31.616-36.864 39.552a98.304 98.304 0 0 0-5.312 31.616v5.248h36.928v-5.248c0-7.872 2.56-13.184 5.248-21.12 2.624-5.248 7.936-10.496 13.184-15.744 13.184-10.56 23.68-21.12 26.368-23.744 7.872-10.56 10.496-23.68 10.496-39.552 0-18.432-5.248-34.24-18.432-44.8-10.56-13.184-28.992-18.432-47.424-18.432z" fill="#1890FF" p-id="11346"></path></svg>